<?xml version="1.0" encoding="UTF-8" standalone="no"?>
<!-- Created with Inkscape (http://www.inkscape.org/) -->

<svg
   xmlns:dc="http://purl.org/dc/elements/1.1/"
   xmlns:cc="http://creativecommons.org/ns#"
   xmlns:rdf="http://www.w3.org/1999/02/22-rdf-syntax-ns#"
   xmlns:svg="http://www.w3.org/2000/svg"
   xmlns="http://www.w3.org/2000/svg"
   xmlns:sodipodi="http://sodipodi.sourceforge.net/DTD/sodipodi-0.dtd"
   xmlns:inkscape="http://www.inkscape.org/namespaces/inkscape"
   width="28.391771mm"
   height="33.657757mm"
   viewBox="0 0 28.391771 33.657757"
   version="1.1"
   id="svg1531"
   inkscape:version="0.92.3 (2405546, 2018-03-11)"
   sodipodi:docname="cart.svg">
  <defs
     id="defs1525" />
  <sodipodi:namedview
     id="base"
     pagecolor="#ffffff"
     bordercolor="#666666"
     borderopacity="1.0"
     inkscape:pageopacity="0.0"
     inkscape:pageshadow="2"
     inkscape:zoom="2.8284271"
     inkscape:cx="218.34339"
     inkscape:cy="83.850307"
     inkscape:document-units="mm"
     inkscape:current-layer="layer1"
     showgrid="false"
     inkscape:window-width="2498"
     inkscape:window-height="1057"
     inkscape:window-x="54"
     inkscape:window-y="-8"
     inkscape:window-maximized="1"
     inkscape:snap-to-guides="false"
     showguides="false"
     inkscape:measure-start="210,156.5"
     inkscape:measure-end="92.3516,86.7656">
    <sodipodi:guide
       position="18.558128,22.505102"
       inkscape:color="rgb(167,0,255)"
       inkscape:label="Measure"
       orientation="-0.5,0.866025"
       id="guide4546"
       inkscape:locked="false" />
    <sodipodi:guide
       position="18.558128,22.505102"
       inkscape:color="rgb(167,0,255)"
       inkscape:label=""
       orientation="-0,1"
       id="guide4548"
       inkscape:locked="false" />
    <sodipodi:guide
       position="18.558128,22.505102"
       inkscape:color="rgb(167,0,255)"
       inkscape:label="Start"
       orientation="-1,6.12303e-017"
       id="guide4550"
       inkscape:locked="false" />
    <sodipodi:guide
       position="19.032528,22.779002"
       inkscape:color="rgb(167,0,255)"
       inkscape:label="End"
       orientation="-0,1"
       id="guide4552"
       inkscape:locked="false" />
    <sodipodi:guide
       position="19.032528,22.779002"
       inkscape:color="rgb(167,0,255)"
       inkscape:label=""
       orientation="-1,6.12303e-017"
       id="guide4554"
       inkscape:locked="false" />
  </sodipodi:namedview>
  <metadata
     id="metadata1528">
    <rdf:RDF>
      <cc:Work
         rdf:about="">
        <dc:format>image/svg+xml</dc:format>
        <dc:type
           rdf:resource="http://purl.org/dc/dcmitype/StillImage" />
        <dc:title></dc:title>
      </cc:Work>
    </rdf:RDF>
  </metadata>
  <g
     inkscape:label="Layer 1"
     inkscape:groupmode="layer"
     id="layer1"
     transform="translate(-97.533191,-80.424695)">
    <g
       id="g102"
       transform="matrix(0.35277777,0,0,-0.35277777,111.52827,111.45849)">
      <path
         d="m 0,0 c 0,-3.142 -2.546,-5.688 -5.688,-5.688 -3.142,0 -5.688,2.546 -5.688,5.688 0,3.142 2.546,5.688 5.688,5.688 C -2.546,5.688 0,3.142 0,0 Z"
         style="fill:none;stroke:#54545b;stroke-width:3.5;stroke-linecap:butt;stroke-linejoin:miter;stroke-miterlimit:10;stroke-dasharray:none;stroke-opacity:1"
         id="path104"
         inkscape:connector-curvature="0" />
    </g>
    <g
       id="g106"
       transform="matrix(0.35277777,0,0,-0.35277777,125.57479,107.44533)">
      <path
         d="m 0,0 h -54.015 c -2.756,0 -5.115,1.976 -5.599,4.688 l -8.085,49.068 c -0.323,1.808 -1.896,3.125 -3.733,3.125 h -4.409 c -1.048,0 -1.897,-0.849 -1.897,-1.896 v -1.896"
         style="fill:none;stroke:#54565b;stroke-width:3.5;stroke-linecap:butt;stroke-linejoin:miter;stroke-miterlimit:10;stroke-dasharray:none;stroke-opacity:1"
         id="path108"
         inkscape:connector-curvature="0" />
    </g>
    <g
       id="g110"
       transform="matrix(0.35277777,0,0,-0.35277777,124.23705,111.45849)">
      <path
         d="m 0,0 c 0,-3.142 -2.547,-5.688 -5.688,-5.688 -3.142,0 -5.688,2.546 -5.688,5.688 0,3.142 2.546,5.688 5.688,5.688 C -2.547,5.688 0,3.142 0,0 Z"
         style="fill:none;stroke:#54545b;stroke-width:3.5;stroke-linecap:butt;stroke-linejoin:miter;stroke-miterlimit:10;stroke-dasharray:none;stroke-opacity:1"
         id="path112"
         inkscape:connector-curvature="0" />
    </g>
    <g
       id="g114"
       transform="matrix(0.35277777,0,0,-0.35277777,102.03379,90.787231)">
      <path
         d="M 0,0 H 14.127"
         style="fill:none;stroke:#54565b;stroke-width:2;stroke-linecap:butt;stroke-linejoin:miter;stroke-miterlimit:10;stroke-dasharray:none;stroke-opacity:1"
         id="path116"
         inkscape:connector-curvature="0" />
    </g>
    <g
       id="g118"
       transform="matrix(0.35277777,0,0,-0.35277777,107.01744,106.023)">
      <path
         style="fill:none;fill-opacity:1;fill-rule:nonzero;stroke:#54565b;stroke-width:1.98425198;stroke-miterlimit:4;stroke-dasharray:none;stroke-opacity:1"
         d="m 0,0 h 50.795 c 0.999,0 1.809,0.955 1.809,2.132 v 37.822 l -13.308,-7.837 0.011,7.837 H 39.296 L 25.989,32.117 26,39.954 h -0.011 l -13.296,-7.83 v 37.314 c 0,1.178 -0.809,2.132 -1.808,2.132 H 2.172 c -0.999,0 -1.808,-0.954 -1.808,-2.131 L 0,0"
         id="path120"
         inkscape:connector-curvature="0" />
    </g>
    <path
       style="fill:#54565b;fill-opacity:1;stroke:none;stroke-width:0;stroke-linecap:butt;stroke-linejoin:miter;stroke-miterlimit:4;stroke-dasharray:none;stroke-opacity:1"
       d="m 106.66732,106.01063 v 0.3617 h 0.38653 v -0.36278 z"
       id="path4536"
       inkscape:connector-curvature="0" />
  </g>
</svg>
