<?xml version="1.0" encoding="UTF-8" standalone="no"?>
<!-- Created with Inkscape (http://www.inkscape.org/) -->

<svg
   xmlns:dc="http://purl.org/dc/elements/1.1/"
   xmlns:cc="http://creativecommons.org/ns#"
   xmlns:rdf="http://www.w3.org/1999/02/22-rdf-syntax-ns#"
   xmlns:svg="http://www.w3.org/2000/svg"
   xmlns="http://www.w3.org/2000/svg"
   xmlns:sodipodi="http://sodipodi.sourceforge.net/DTD/sodipodi-0.dtd"
   xmlns:inkscape="http://www.inkscape.org/namespaces/inkscape"
   width="111.2476mm"
   height="33.307755mm"
   viewBox="0 0 111.2476 33.307755"
   version="1.1"
   id="svg1269"
   inkscape:version="0.92.3 (2405546, 2018-03-11)"
   sodipodi:docname="logoText.svg">
  <defs
     id="defs1263" />
  <sodipodi:namedview
     id="base"
     pagecolor="#ffffff"
     bordercolor="#666666"
     borderopacity="1.0"
     inkscape:pageopacity="0.0"
     inkscape:pageshadow="2"
     inkscape:zoom="0.98994949"
     inkscape:cx="428.79241"
     inkscape:cy="229.1351"
     inkscape:document-units="mm"
     inkscape:current-layer="layer1"
     showgrid="false"
     inkscape:window-width="2498"
     inkscape:window-height="1057"
     inkscape:window-x="54"
     inkscape:window-y="-8"
     inkscape:window-maximized="1" />
  <metadata
     id="metadata1266">
    <rdf:RDF>
      <cc:Work
         rdf:about="">
        <dc:format>image/svg+xml</dc:format>
        <dc:type
           rdf:resource="http://purl.org/dc/dcmitype/StillImage" />
        <dc:title></dc:title>
      </cc:Work>
    </rdf:RDF>
  </metadata>
  <g
     inkscape:label="Layer 1"
     inkscape:groupmode="layer"
     id="layer1"
     transform="translate(-56.406289,-147.18759)">
    <g
       id="g32"
       transform="matrix(0.59214987,0,0,-0.59214987,102.25283,177.02189)">
      <path
         d="M 0,0 V 4.616 L -1.99,1.596 H -2.03 L -4,4.586 V 0 h -1.525 v 7.071 h 1.676 l 1.859,-2.99 1.858,2.99 H 1.545 V 0 Z"
         style="fill:#54565b;fill-opacity:1;fill-rule:nonzero;stroke:none"
         id="path34"
         inkscape:connector-curvature="0" />
    </g>
    <g
       id="g36"
       transform="matrix(0.59214987,0,0,-0.59214987,107.21908,173.91139)">
      <path
         d="m 0,0 -0.939,-2.293 h 1.878 z m 2.142,-5.253 -0.647,1.586 h -2.99 l -0.647,-1.586 h -1.586 l 3.031,7.121 h 1.434 l 3.031,-7.121 z"
         style="fill:#54565b;fill-opacity:1;fill-rule:nonzero;stroke:none"
         id="path38"
         inkscape:connector-curvature="0" />
    </g>
    <g
       id="g40"
       transform="matrix(0.59214987,0,0,-0.59214987,113.85359,174.26473)">
      <path
         d="M 0,0 C 0,0.667 -0.465,1.011 -1.223,1.011 H -2.768 V -1.02 h 1.576 c 0.757,0 1.192,0.404 1.192,1 z m -0.03,-4.656 -1.516,2.262 h -1.222 v -2.262 h -1.555 v 7.071 h 3.232 c 1.667,0 2.667,-0.879 2.667,-2.334 V 0.062 c 0,-1.142 -0.616,-1.86 -1.515,-2.193 l 1.727,-2.525 z"
         style="fill:#54565b;fill-opacity:1;fill-rule:nonzero;stroke:none"
         id="path42"
         inkscape:connector-curvature="0" />
    </g>
    <g
       id="g44"
       transform="matrix(0.59214987,0,0,-0.59214987,119.51944,177.02189)">
      <path
         d="M 0,0 -2.191,3.01 -3.01,2.162 V 0 H -4.565 V 7.071 H -3.01 V 3.979 l 2.868,3.092 h 1.879 l -2.879,-3 L 1.869,0 Z"
         style="fill:#54565b;fill-opacity:1;fill-rule:nonzero;stroke:none"
         id="path46"
         inkscape:connector-curvature="0" />
    </g>
    <g
       id="g48"
       transform="matrix(0.59214987,0,0,-0.59214987,122.38019,177.02189)">
      <path
         d="M 0,0 V 7.071 H 5.333 V 5.687 H 1.545 V 4.253 H 4.879 V 2.869 H 1.545 V 1.384 H 5.384 V 0 Z"
         style="fill:#54565b;fill-opacity:1;fill-rule:nonzero;stroke:none"
         id="path50"
         inkscape:connector-curvature="0" />
    </g>
    <g
       id="g52"
       transform="matrix(0.59214987,0,0,-0.59214987,129.48138,173.68413)">
      <path
         d="M 0,0 V -5.637 H -1.556 V 0 H -3.707 V 1.435 H 2.151 V 0 Z"
         style="fill:#54565b;fill-opacity:1;fill-rule:nonzero;stroke:none"
         id="path54"
         inkscape:connector-curvature="0" />
    </g>
    <g
       id="g56"
       transform="matrix(0.59214987,0,0,-0.59214987,135.0397,174.30055)">
      <path
         d="m 0,0 c 0,0.697 -0.485,1.071 -1.263,1.071 h -1.202 v -2.162 h 1.233 C -0.455,-1.091 0,-0.626 0,-0.02 Z m -1.283,-2.475 h -1.182 v -2.121 h -1.556 v 7.072 h 2.889 c 1.688,0 2.707,-1 2.707,-2.446 V 0.011 c 0,-1.637 -1.272,-2.486 -2.858,-2.486"
         style="fill:#54565b;fill-opacity:1;fill-rule:nonzero;stroke:none"
         id="path58"
         inkscape:connector-curvature="0" />
    </g>
    <g
       id="g60"
       transform="matrix(0.59214987,0,0,-0.59214987,137.85182,177.02189)">
      <path
         d="M 0,0 V 7.071 H 1.556 V 1.414 H 5.081 V 0 Z"
         style="fill:#54565b;fill-opacity:1;fill-rule:nonzero;stroke:none"
         id="path62"
         inkscape:connector-curvature="0" />
    </g>
    <g
       id="g64"
       transform="matrix(0.59214987,0,0,-0.59214987,144.60026,173.91139)">
      <path
         d="m 0,0 -0.939,-2.293 h 1.878 z m 2.142,-5.253 -0.647,1.586 h -2.99 l -0.647,-1.586 h -1.586 l 3.031,7.121 h 1.434 l 3.031,-7.121 z"
         style="fill:#54565b;fill-opacity:1;fill-rule:nonzero;stroke:none"
         id="path66"
         inkscape:connector-curvature="0" />
    </g>
    <g
       id="g68"
       transform="matrix(0.59214987,0,0,-0.59214987,150.36791,177.0936)">
      <path
         d="m 0,0 c -2.081,0 -3.627,1.606 -3.627,3.637 v 0.019 c 0,2.011 1.516,3.657 3.688,3.657 1.333,0 2.13,-0.444 2.788,-1.09 L 1.858,5.081 C 1.312,5.576 0.757,5.879 0.05,5.879 -1.142,5.879 -2,4.889 -2,3.677 V 3.656 c 0,-1.212 0.838,-2.221 2.05,-2.221 0.808,0 1.304,0.323 1.859,0.828 l 0.989,-1 C 2.172,0.484 1.363,0 0,0"
         style="fill:#54565b;fill-opacity:1;fill-rule:nonzero;stroke:none"
         id="path70"
         inkscape:connector-curvature="0" />
    </g>
    <g
       id="g72"
       transform="matrix(0.59214987,0,0,-0.59214987,154.01798,177.02189)">
      <path
         d="M 0,0 V 7.071 H 5.333 V 5.687 H 1.545 V 4.253 H 4.879 V 2.869 H 1.545 V 1.384 H 5.384 V 0 Z"
         style="fill:#54565b;fill-opacity:1;fill-rule:nonzero;stroke:none"
         id="path74"
         inkscape:connector-curvature="0" />
    </g>
    <g
       id="g76"
       transform="matrix(0.59214987,0,0,-0.59214987,101.08765,159.72697)">
      <path
         d="m 0,0 c 0,2.385 -1.658,3.664 -4.32,3.664 h -4.113 v -7.396 h 4.217 c 2.661,0 4.216,1.589 4.216,3.663 z m -4.389,-8.467 h -4.044 v -7.258 h -5.322 V 8.468 h 9.885 c 5.771,0 9.262,-3.422 9.262,-8.364 V 0.035 c 0,-5.599 -4.355,-8.502 -9.781,-8.502"
         style="fill:#ff8400;fill-opacity:1;fill-rule:nonzero;stroke:none"
         id="path78"
         inkscape:connector-curvature="0" />
    </g>
    <g
       id="g80"
       transform="matrix(0.59214987,0,0,-0.59214987,112.5675,164.61801)">
      <path
         d="m 0,0 c -0.898,0.415 -2.073,0.691 -3.353,0.691 -2.246,0 -3.628,-0.899 -3.628,-2.557 v -0.07 c 0,-1.417 1.175,-2.246 2.869,-2.246 2.454,0 4.112,1.348 4.112,3.249 z m -0.104,-7.465 v 2.004 c -1.278,-1.417 -3.041,-2.35 -5.598,-2.35 -3.491,0 -6.36,2.004 -6.36,5.668 v 0.069 c 0,4.044 3.077,5.91 7.465,5.91 1.868,0 3.215,-0.311 4.529,-0.76 v 0.311 c 0,2.177 -1.349,3.387 -3.975,3.387 -2.005,0 -3.422,-0.38 -5.115,-1.003 l -1.314,4.01 c 2.039,0.898 4.044,1.486 7.189,1.486 5.737,0 8.261,-2.973 8.261,-7.984 V -7.465 Z"
         style="fill:#ff8400;fill-opacity:1;fill-rule:nonzero;stroke:none"
         id="path82"
         inkscape:connector-curvature="0" />
    </g>
    <path
       d="m 118.33687,154.09871 h 3.11116 v 14.93935 h -3.11116 z"
       style="fill:#898b8e;fill-opacity:1;fill-rule:nonzero;stroke:none;stroke-width:0.59214985"
       id="path84"
       inkscape:connector-curvature="0" />
    <g
       id="g86"
       transform="matrix(0.59214987,0,0,-0.59214987,130.86054,164.61801)">
      <path
         d="m 0,0 c -0.898,0.415 -2.073,0.691 -3.353,0.691 -2.246,0 -3.628,-0.899 -3.628,-2.557 v -0.07 c 0,-1.417 1.175,-2.246 2.869,-2.246 2.454,0 4.112,1.348 4.112,3.249 z m -0.104,-7.465 v 2.004 c -1.278,-1.417 -3.041,-2.35 -5.598,-2.35 -3.491,0 -6.36,2.004 -6.36,5.668 v 0.069 c 0,4.044 3.077,5.91 7.465,5.91 1.868,0 3.215,-0.311 4.529,-0.76 v 0.311 c 0,2.177 -1.349,3.387 -3.975,3.387 -2.005,0 -3.422,-0.38 -5.115,-1.003 l -1.314,4.01 c 2.039,0.898 4.044,1.486 7.189,1.486 5.737,0 8.261,-2.973 8.261,-7.984 V -7.465 Z"
         style="fill:#898b8e;fill-opacity:1;fill-rule:nonzero;stroke:none"
         id="path88"
         inkscape:connector-curvature="0" />
    </g>
    <g
       id="g90"
       transform="matrix(0.59214987,0,0,-0.59214987,143.4252,169.0386)">
      <path
         d="m 0,0 v 10.334 c 0,2.488 -1.175,3.767 -3.18,3.767 -2.005,0 -3.283,-1.279 -3.283,-3.767 V 0 h -5.253 v 18.525 h 5.253 v -2.627 c 1.21,1.556 2.765,2.973 5.426,2.973 3.975,0 6.29,-2.627 6.29,-6.878 L 5.253,0 Z"
         style="fill:#898b8e;fill-opacity:1;fill-rule:nonzero;stroke:none"
         id="path92"
         inkscape:connector-curvature="0" />
    </g>
    <g
       id="g94"
       transform="matrix(0.59214987,0,0,-0.59214987,152.9395,169.22275)">
      <path
         d="m 0,0 c -3.214,0 -5.392,1.279 -5.392,5.564 v 8.779 h -2.212 v 4.493 h 2.212 v 4.735 h 5.254 V 18.836 H 4.217 V 14.343 H -0.138 V 6.428 c 0,-1.209 0.519,-1.797 1.694,-1.797 0.967,0 1.832,0.242 2.591,0.657 V 1.071 C 3.042,0.415 1.763,0 0,0"
         style="fill:#898b8e;fill-opacity:1;fill-rule:nonzero;stroke:none"
         id="path96"
         inkscape:connector-curvature="0" />
    </g>
    <g
       id="g98"
       transform="matrix(0.59214987,0,0,-0.59214987,162.31211,160.36134)">
      <path
         d="M 0,0 C -2.178,0 -3.595,-1.555 -4.009,-3.94 H 3.905 C 3.595,-1.59 2.212,0 0,0 M 8.951,-7.223 H -3.94 c 0.518,-2.385 2.177,-3.629 4.528,-3.629 1.762,0 3.041,0.553 4.492,1.901 l 3.007,-2.661 c -1.728,-2.143 -4.216,-3.456 -7.568,-3.456 -5.565,0 -9.678,3.905 -9.678,9.573 v 0.069 c 0,5.288 3.767,9.643 9.159,9.643 6.187,0 9.021,-4.804 9.021,-10.058 V -5.91 c 0,-0.518 -0.036,-0.829 -0.07,-1.313"
         style="fill:#898b8e;fill-opacity:1;fill-rule:nonzero;stroke:none"
         id="path100"
         inkscape:connector-curvature="0" />
    </g>
    <g
       id="g102"
       transform="matrix(0.35277777,0,0,-0.35277777,75.79524,177.87138)">
      <path
         d="m 0,0 c 0,-3.142 -2.546,-5.688 -5.688,-5.688 -3.142,0 -5.688,2.546 -5.688,5.688 0,3.142 2.546,5.688 5.688,5.688 C -2.546,5.688 0,3.142 0,0 Z"
         style="fill:none;stroke:#54545b;stroke-width:3.5;stroke-linecap:butt;stroke-linejoin:miter;stroke-miterlimit:10;stroke-dasharray:none;stroke-opacity:1"
         id="path104"
         inkscape:connector-curvature="0" />
    </g>
    <g
       id="g106"
       transform="matrix(0.35277777,0,0,-0.35277777,89.84175,173.85822)">
      <path
         d="m 0,0 h -54.015 c -2.756,0 -5.115,1.976 -5.599,4.688 l -8.085,49.068 c -0.323,1.808 -1.896,3.125 -3.733,3.125 h -4.409 c -1.048,0 -1.897,-0.849 -1.897,-1.896 v -1.896"
         style="fill:none;stroke:#54565b;stroke-width:3.5;stroke-linecap:butt;stroke-linejoin:miter;stroke-miterlimit:10;stroke-dasharray:none;stroke-opacity:1"
         id="path108"
         inkscape:connector-curvature="0" />
    </g>
    <g
       id="g110"
       transform="matrix(0.35277777,0,0,-0.35277777,88.50402,177.87138)">
      <path
         d="m 0,0 c 0,-3.142 -2.547,-5.688 -5.688,-5.688 -3.142,0 -5.688,2.546 -5.688,5.688 0,3.142 2.546,5.688 5.688,5.688 C -2.547,5.688 0,3.142 0,0 Z"
         style="fill:none;stroke:#54545b;stroke-width:3.5;stroke-linecap:butt;stroke-linejoin:miter;stroke-miterlimit:10;stroke-dasharray:none;stroke-opacity:1"
         id="path112"
         inkscape:connector-curvature="0" />
    </g>
    <g
       id="g114"
       transform="matrix(0.35277777,0,0,-0.35277777,66.30075,157.20012)">
      <path
         d="M 0,0 H 14.127"
         style="fill:none;stroke:#54565b;stroke-width:2;stroke-linecap:butt;stroke-linejoin:miter;stroke-miterlimit:10;stroke-dasharray:none;stroke-opacity:1"
         id="path116"
         inkscape:connector-curvature="0" />
    </g>
    <g
       id="g118"
       transform="matrix(0.35277777,0,0,-0.35277777,71.28441,172.43589)">
      <path
         d="m 0,0 h 50.795 c 0.999,0 1.809,0.955 1.809,2.132 v 37.822 l -13.308,-7.837 0.011,7.837 H 39.296 L 25.989,32.117 26,39.954 h -0.011 l -13.296,-7.83 v 37.314 c 0,1.178 -0.809,2.132 -1.808,2.132 H 2.172 c -0.999,0 -1.808,-0.954 -1.808,-2.131 L 0,0"
         style="fill:#ff8400;fill-opacity:1;fill-rule:nonzero;stroke:none"
         id="path120"
         inkscape:connector-curvature="0" />
    </g>
    <g
       id="g122"
       transform="matrix(0.35277777,0,0,-0.35277777,62.60226,158.87719)">
      <path
         d="m 0,0 h -10.678 c -0.689,0 -1.247,0.417 -1.247,0.931 0,0.515 0.558,0.931 1.247,0.931 H 0 C 0.689,1.862 1.248,1.446 1.248,0.931 1.248,0.417 0.689,0 0,0"
         style="fill:#898b8e;fill-opacity:1;fill-rule:nonzero;stroke:none"
         id="path124"
         inkscape:connector-curvature="0" />
    </g>
    <g
       id="g126"
       transform="matrix(0.35277777,0,0,-0.35277777,64.41505,160.08263)">
      <path
         d="m 0,0 h -21.429 c -0.703,0 -1.273,0.417 -1.273,0.931 0,0.515 0.57,0.931 1.273,0.931 H 0 C 0.703,1.862 1.272,1.446 1.272,0.931 1.272,0.417 0.703,0 0,0"
         style="fill:#898b8e;fill-opacity:1;fill-rule:nonzero;stroke:none"
         id="path128"
         inkscape:connector-curvature="0" />
    </g>
    <g
       id="g130"
       transform="matrix(0.35277777,0,0,-0.35277777,61.236275,161.28807)">
      <path
         d="m 0,0 h -10.209 c -0.689,0 -1.248,0.417 -1.248,0.931 0,0.514 0.559,0.931 1.248,0.931 H 0 C 0.688,1.862 1.247,1.445 1.247,0.931 1.247,0.417 0.688,0 0,0"
         style="fill:#898b8e;fill-opacity:1;fill-rule:nonzero;stroke:none"
         id="path132"
         inkscape:connector-curvature="0" />
    </g>
  </g>
</svg>
