<?xml version="1.0" encoding="UTF-8" standalone="no"?>
<!-- Created with Inkscape (http://www.inkscape.org/) -->

<svg
   xmlns:dc="http://purl.org/dc/elements/1.1/"
   xmlns:cc="http://creativecommons.org/ns#"
   xmlns:rdf="http://www.w3.org/1999/02/22-rdf-syntax-ns#"
   xmlns:svg="http://www.w3.org/2000/svg"
   xmlns="http://www.w3.org/2000/svg"
   xmlns:sodipodi="http://sodipodi.sourceforge.net/DTD/sodipodi-0.dtd"
   xmlns:inkscape="http://www.inkscape.org/namespaces/inkscape"
   width="33.435642mm"
   height="33.307755mm"
   viewBox="0 0 33.435642 33.307755"
   version="1.1"
   id="svg1531"
   inkscape:version="0.92.3 (2405546, 2018-03-11)"
   sodipodi:docname="Logo.svg">
  <defs
     id="defs1525" />
  <sodipodi:namedview
     id="base"
     pagecolor="#ffffff"
     bordercolor="#666666"
     borderopacity="1.0"
     inkscape:pageopacity="0.0"
     inkscape:pageshadow="2"
     inkscape:zoom="0.35"
     inkscape:cx="-248.2431"
     inkscape:cy="-131.34192"
     inkscape:document-units="mm"
     inkscape:current-layer="layer1"
     showgrid="false"
     inkscape:window-width="2498"
     inkscape:window-height="1057"
     inkscape:window-x="54"
     inkscape:window-y="-8"
     inkscape:window-maximized="1" />
  <metadata
     id="metadata1528">
    <rdf:RDF>
      <cc:Work
         rdf:about="">
        <dc:format>image/svg+xml</dc:format>
        <dc:type
           rdf:resource="http://purl.org/dc/dcmitype/StillImage" />
        <dc:title></dc:title>
      </cc:Work>
    </rdf:RDF>
  </metadata>
  <g
     inkscape:label="Layer 1"
     inkscape:groupmode="layer"
     id="layer1"
     transform="translate(-92.139319,-80.774695)">
    <g
       id="g102"
       transform="matrix(0.35277777,0,0,-0.35277777,111.52827,111.45849)">
      <path
         d="m 0,0 c 0,-3.142 -2.546,-5.688 -5.688,-5.688 -3.142,0 -5.688,2.546 -5.688,5.688 0,3.142 2.546,5.688 5.688,5.688 C -2.546,5.688 0,3.142 0,0 Z"
         style="fill:none;stroke:#54545b;stroke-width:3.5;stroke-linecap:butt;stroke-linejoin:miter;stroke-miterlimit:10;stroke-dasharray:none;stroke-opacity:1"
         id="path104"
         inkscape:connector-curvature="0" />
    </g>
    <g
       id="g106"
       transform="matrix(0.35277777,0,0,-0.35277777,125.57479,107.44533)">
      <path
         d="m 0,0 h -54.015 c -2.756,0 -5.115,1.976 -5.599,4.688 l -8.085,49.068 c -0.323,1.808 -1.896,3.125 -3.733,3.125 h -4.409 c -1.048,0 -1.897,-0.849 -1.897,-1.896 v -1.896"
         style="fill:none;stroke:#54565b;stroke-width:3.5;stroke-linecap:butt;stroke-linejoin:miter;stroke-miterlimit:10;stroke-dasharray:none;stroke-opacity:1"
         id="path108"
         inkscape:connector-curvature="0" />
    </g>
    <g
       id="g110"
       transform="matrix(0.35277777,0,0,-0.35277777,124.23705,111.45849)">
      <path
         d="m 0,0 c 0,-3.142 -2.547,-5.688 -5.688,-5.688 -3.142,0 -5.688,2.546 -5.688,5.688 0,3.142 2.546,5.688 5.688,5.688 C -2.547,5.688 0,3.142 0,0 Z"
         style="fill:none;stroke:#54545b;stroke-width:3.5;stroke-linecap:butt;stroke-linejoin:miter;stroke-miterlimit:10;stroke-dasharray:none;stroke-opacity:1"
         id="path112"
         inkscape:connector-curvature="0" />
    </g>
    <g
       id="g114"
       transform="matrix(0.35277777,0,0,-0.35277777,102.03379,90.787231)">
      <path
         d="M 0,0 H 14.127"
         style="fill:none;stroke:#54565b;stroke-width:2;stroke-linecap:butt;stroke-linejoin:miter;stroke-miterlimit:10;stroke-dasharray:none;stroke-opacity:1"
         id="path116"
         inkscape:connector-curvature="0" />
    </g>
    <g
       id="g118"
       transform="matrix(0.35277777,0,0,-0.35277777,107.01744,106.023)">
      <path
         d="m 0,0 h 50.795 c 0.999,0 1.809,0.955 1.809,2.132 v 37.822 l -13.308,-7.837 0.011,7.837 H 39.296 L 25.989,32.117 26,39.954 h -0.011 l -13.296,-7.83 v 37.314 c 0,1.178 -0.809,2.132 -1.808,2.132 H 2.172 c -0.999,0 -1.808,-0.954 -1.808,-2.131 L 0,0"
         style="fill:#ff8400;fill-opacity:1;fill-rule:nonzero;stroke:none"
         id="path120"
         inkscape:connector-curvature="0" />
    </g>
    <g
       id="g122"
       transform="matrix(0.35277777,0,0,-0.35277777,98.335298,92.464302)">
      <path
         d="m 0,0 h -10.678 c -0.689,0 -1.247,0.417 -1.247,0.931 0,0.515 0.558,0.931 1.247,0.931 H 0 C 0.689,1.862 1.248,1.446 1.248,0.931 1.248,0.417 0.689,0 0,0"
         style="fill:#898b8e;fill-opacity:1;fill-rule:nonzero;stroke:none"
         id="path124"
         inkscape:connector-curvature="0" />
    </g>
    <g
       id="g126"
       transform="matrix(0.35277777,0,0,-0.35277777,100.14808,93.669743)">
      <path
         d="m 0,0 h -21.429 c -0.703,0 -1.273,0.417 -1.273,0.931 0,0.515 0.57,0.931 1.273,0.931 H 0 C 0.703,1.862 1.272,1.446 1.272,0.931 1.272,0.417 0.703,0 0,0"
         style="fill:#898b8e;fill-opacity:1;fill-rule:nonzero;stroke:none"
         id="path128"
         inkscape:connector-curvature="0" />
    </g>
    <g
       id="g130"
       transform="matrix(0.35277777,0,0,-0.35277777,96.969308,94.875185)">
      <path
         d="m 0,0 h -10.209 c -0.689,0 -1.248,0.417 -1.248,0.931 0,0.514 0.559,0.931 1.248,0.931 H 0 C 0.688,1.862 1.247,1.445 1.247,0.931 1.247,0.417 0.688,0 0,0"
         style="fill:#898b8e;fill-opacity:1;fill-rule:nonzero;stroke:none"
         id="path132"
         inkscape:connector-curvature="0" />
    </g>
  </g>
</svg>
