<?xml version="1.0" encoding="UTF-8" standalone="no"?>
<!-- Created with Inkscape (http://www.inkscape.org/) -->

<svg
   xmlns:dc="http://purl.org/dc/elements/1.1/"
   xmlns:cc="http://creativecommons.org/ns#"
   xmlns:rdf="http://www.w3.org/1999/02/22-rdf-syntax-ns#"
   xmlns:svg="http://www.w3.org/2000/svg"
   xmlns="http://www.w3.org/2000/svg"
   xmlns:sodipodi="http://sodipodi.sourceforge.net/DTD/sodipodi-0.dtd"
   xmlns:inkscape="http://www.inkscape.org/namespaces/inkscape"
   width="51.988857mm"
   height="52.82674mm"
   viewBox="0 0 51.988857 52.82674"
   version="1.1"
   id="svg1696"
   inkscape:version="0.92.3 (2405546, 2018-03-11)"
   sodipodi:docname="logoFull.svg">
  <defs
     id="defs1690" />
  <sodipodi:namedview
     id="base"
     pagecolor="#ffffff"
     bordercolor="#666666"
     borderopacity="1.0"
     inkscape:pageopacity="0.0"
     inkscape:pageshadow="2"
     inkscape:zoom="0.35"
     inkscape:cx="-164.61048"
     inkscape:cy="282.68721"
     inkscape:document-units="mm"
     inkscape:current-layer="layer1"
     showgrid="false"
     inkscape:window-width="2498"
     inkscape:window-height="1057"
     inkscape:window-x="54"
     inkscape:window-y="-8"
     inkscape:window-maximized="1" />
  <metadata
     id="metadata1693">
    <rdf:RDF>
      <cc:Work
         rdf:about="">
        <dc:format>image/svg+xml</dc:format>
        <dc:type
           rdf:resource="http://purl.org/dc/dcmitype/StillImage" />
        <dc:title></dc:title>
      </cc:Work>
    </rdf:RDF>
  </metadata>
  <g
     inkscape:label="Layer 1"
     inkscape:groupmode="layer"
     id="layer1"
     transform="translate(-70.011522,-170.80092)">
    <g
       id="g32"
       transform="matrix(0.35277777,0,0,-0.35277777,83.037206,217.88009)">
      <path
         d="M 0,0 V 4.616 L -1.99,1.596 H -2.03 L -4,4.586 V 0 h -1.525 v 7.071 h 1.676 l 1.859,-2.99 1.858,2.99 H 1.545 V 0 Z"
         style="fill:#54565b;fill-opacity:1;fill-rule:nonzero;stroke:none"
         id="path34"
         inkscape:connector-curvature="0" />
    </g>
    <g
       id="g36"
       transform="matrix(0.35277777,0,0,-0.35277777,85.995883,216.02699)">
      <path
         d="m 0,0 -0.939,-2.293 h 1.878 z m 2.142,-5.253 -0.647,1.586 h -2.99 l -0.647,-1.586 h -1.586 l 3.031,7.121 h 1.434 l 3.031,-7.121 z"
         style="fill:#54565b;fill-opacity:1;fill-rule:nonzero;stroke:none"
         id="path38"
         inkscape:connector-curvature="0" />
    </g>
    <g
       id="g40"
       transform="matrix(0.35277777,0,0,-0.35277777,89.948441,216.23749)">
      <path
         d="M 0,0 C 0,0.667 -0.465,1.011 -1.223,1.011 H -2.768 V -1.02 h 1.576 c 0.757,0 1.192,0.404 1.192,1 z m -0.03,-4.656 -1.516,2.262 h -1.222 v -2.262 h -1.555 v 7.071 h 3.232 c 1.667,0 2.667,-0.879 2.667,-2.334 V 0.062 c 0,-1.142 -0.616,-1.86 -1.515,-2.193 l 1.727,-2.525 z"
         style="fill:#54565b;fill-opacity:1;fill-rule:nonzero;stroke:none"
         id="path42"
         inkscape:connector-curvature="0" />
    </g>
    <g
       id="g44"
       transform="matrix(0.35277777,0,0,-0.35277777,93.323923,217.88009)">
      <path
         d="M 0,0 -2.191,3.01 -3.01,2.162 V 0 H -4.565 V 7.071 H -3.01 V 3.979 l 2.868,3.092 h 1.879 l -2.879,-3 L 1.869,0 Z"
         style="fill:#54565b;fill-opacity:1;fill-rule:nonzero;stroke:none"
         id="path46"
         inkscape:connector-curvature="0" />
    </g>
    <g
       id="g48"
       transform="matrix(0.35277777,0,0,-0.35277777,95.028229,217.88009)">
      <path
         d="M 0,0 V 7.071 H 5.333 V 5.687 H 1.545 V 4.253 H 4.879 V 2.869 H 1.545 V 1.384 H 5.384 V 0 Z"
         style="fill:#54565b;fill-opacity:1;fill-rule:nonzero;stroke:none"
         id="path50"
         inkscape:connector-curvature="0" />
    </g>
    <g
       id="g52"
       transform="matrix(0.35277777,0,0,-0.35277777,99.25881,215.89159)">
      <path
         d="M 0,0 V -5.637 H -1.556 V 0 H -3.707 V 1.435 H 2.151 V 0 Z"
         style="fill:#54565b;fill-opacity:1;fill-rule:nonzero;stroke:none"
         id="path54"
         inkscape:connector-curvature="0" />
    </g>
    <g
       id="g56"
       transform="matrix(0.35277777,0,0,-0.35277777,102.57023,216.25883)">
      <path
         d="m 0,0 c 0,0.697 -0.485,1.071 -1.263,1.071 h -1.202 v -2.162 h 1.233 C -0.455,-1.091 0,-0.626 0,-0.02 Z m -1.283,-2.475 h -1.182 v -2.121 h -1.556 v 7.072 h 2.889 c 1.688,0 2.707,-1 2.707,-2.446 V 0.011 c 0,-1.637 -1.272,-2.486 -2.858,-2.486"
         style="fill:#54565b;fill-opacity:1;fill-rule:nonzero;stroke:none"
         id="path58"
         inkscape:connector-curvature="0" />
    </g>
    <g
       id="g60"
       transform="matrix(0.35277777,0,0,-0.35277777,104.24557,217.88009)">
      <path
         d="M 0,0 V 7.071 H 1.556 V 1.414 H 5.081 V 0 Z"
         style="fill:#54565b;fill-opacity:1;fill-rule:nonzero;stroke:none"
         id="path62"
         inkscape:connector-curvature="0" />
    </g>
    <g
       id="g64"
       transform="matrix(0.35277777,0,0,-0.35277777,108.266,216.02699)">
      <path
         d="m 0,0 -0.939,-2.293 h 1.878 z m 2.142,-5.253 -0.647,1.586 h -2.99 l -0.647,-1.586 h -1.586 l 3.031,7.121 h 1.434 l 3.031,-7.121 z"
         style="fill:#54565b;fill-opacity:1;fill-rule:nonzero;stroke:none"
         id="path66"
         inkscape:connector-curvature="0" />
    </g>
    <g
       id="g68"
       transform="matrix(0.35277777,0,0,-0.35277777,111.70213,217.92282)">
      <path
         d="m 0,0 c -2.081,0 -3.627,1.606 -3.627,3.637 v 0.019 c 0,2.011 1.516,3.657 3.688,3.657 1.333,0 2.13,-0.444 2.788,-1.09 L 1.858,5.081 C 1.312,5.576 0.757,5.879 0.05,5.879 -1.142,5.879 -2,4.889 -2,3.677 V 3.656 c 0,-1.212 0.838,-2.221 2.05,-2.221 0.808,0 1.304,0.323 1.859,0.828 l 0.989,-1 C 2.172,0.484 1.363,0 0,0"
         style="fill:#54565b;fill-opacity:1;fill-rule:nonzero;stroke:none"
         id="path70"
         inkscape:connector-curvature="0" />
    </g>
    <g
       id="g72"
       transform="matrix(0.35277777,0,0,-0.35277777,113.87668,217.88009)">
      <path
         d="M 0,0 V 7.071 H 5.333 V 5.687 H 1.545 V 4.253 H 4.879 V 2.869 H 1.545 V 1.384 H 5.384 V 0 Z"
         style="fill:#54565b;fill-opacity:1;fill-rule:nonzero;stroke:none"
         id="path74"
         inkscape:connector-curvature="0" />
    </g>
    <g
       id="g76"
       transform="matrix(0.35277777,0,0,-0.35277777,82.343046,207.57652)">
      <path
         d="m 0,0 c 0,2.385 -1.658,3.664 -4.32,3.664 h -4.113 v -7.396 h 4.217 c 2.661,0 4.216,1.589 4.216,3.663 z m -4.389,-8.467 h -4.044 v -7.258 h -5.322 V 8.468 h 9.885 c 5.771,0 9.262,-3.422 9.262,-8.364 V 0.035 c 0,-5.599 -4.355,-8.502 -9.781,-8.502"
         style="fill:#ff8400;fill-opacity:1;fill-rule:nonzero;stroke:none"
         id="path78"
         inkscape:connector-curvature="0" />
    </g>
    <g
       id="g80"
       transform="matrix(0.35277777,0,0,-0.35277777,89.182242,210.49039)">
      <path
         d="m 0,0 c -0.898,0.415 -2.073,0.691 -3.353,0.691 -2.246,0 -3.628,-0.899 -3.628,-2.557 v -0.07 c 0,-1.417 1.175,-2.246 2.869,-2.246 2.454,0 4.112,1.348 4.112,3.249 z m -0.104,-7.465 v 2.004 c -1.278,-1.417 -3.041,-2.35 -5.598,-2.35 -3.491,0 -6.36,2.004 -6.36,5.668 v 0.069 c 0,4.044 3.077,5.91 7.465,5.91 1.868,0 3.215,-0.311 4.529,-0.76 v 0.311 c 0,2.177 -1.349,3.387 -3.975,3.387 -2.005,0 -3.422,-0.38 -5.115,-1.003 l -1.314,4.01 c 2.039,0.898 4.044,1.486 7.189,1.486 5.737,0 8.261,-2.973 8.261,-7.984 V -7.465 Z"
         style="fill:#ff8400;fill-opacity:1;fill-rule:nonzero;stroke:none"
         id="path82"
         inkscape:connector-curvature="0" />
    </g>
    <path
       d="m 92.619391,204.22343 h 1.853495 v 8.90023 h -1.853495 z"
       style="fill:#898b8e;fill-opacity:1;fill-rule:nonzero;stroke:none;stroke-width:0.35277775"
       id="path84"
       inkscape:connector-curvature="0" />
    <g
       id="g86"
       transform="matrix(0.35277777,0,0,-0.35277777,100.08047,210.49039)">
      <path
         d="m 0,0 c -0.898,0.415 -2.073,0.691 -3.353,0.691 -2.246,0 -3.628,-0.899 -3.628,-2.557 v -0.07 c 0,-1.417 1.175,-2.246 2.869,-2.246 2.454,0 4.112,1.348 4.112,3.249 z m -0.104,-7.465 v 2.004 c -1.278,-1.417 -3.041,-2.35 -5.598,-2.35 -3.491,0 -6.36,2.004 -6.36,5.668 v 0.069 c 0,4.044 3.077,5.91 7.465,5.91 1.868,0 3.215,-0.311 4.529,-0.76 v 0.311 c 0,2.177 -1.349,3.387 -3.975,3.387 -2.005,0 -3.422,-0.38 -5.115,-1.003 l -1.314,4.01 c 2.039,0.898 4.044,1.486 7.189,1.486 5.737,0 8.261,-2.973 8.261,-7.984 V -7.465 Z"
         style="fill:#898b8e;fill-opacity:1;fill-rule:nonzero;stroke:none"
         id="path88"
         inkscape:connector-curvature="0" />
    </g>
    <g
       id="g90"
       transform="matrix(0.35277777,0,0,-0.35277777,107.56595,213.12398)">
      <path
         d="m 0,0 v 10.334 c 0,2.488 -1.175,3.767 -3.18,3.767 -2.005,0 -3.283,-1.279 -3.283,-3.767 V 0 h -5.253 v 18.525 h 5.253 v -2.627 c 1.21,1.556 2.765,2.973 5.426,2.973 3.975,0 6.29,-2.627 6.29,-6.878 L 5.253,0 Z"
         style="fill:#898b8e;fill-opacity:1;fill-rule:nonzero;stroke:none"
         id="path92"
         inkscape:connector-curvature="0" />
    </g>
    <g
       id="g94"
       transform="matrix(0.35277777,0,0,-0.35277777,113.23417,213.23369)">
      <path
         d="m 0,0 c -3.214,0 -5.392,1.279 -5.392,5.564 v 8.779 h -2.212 v 4.493 h 2.212 v 4.735 h 5.254 V 18.836 H 4.217 V 14.343 H -0.138 V 6.428 c 0,-1.209 0.519,-1.797 1.694,-1.797 0.967,0 1.832,0.242 2.591,0.657 V 1.071 C 3.042,0.415 1.763,0 0,0"
         style="fill:#898b8e;fill-opacity:1;fill-rule:nonzero;stroke:none"
         id="path96"
         inkscape:connector-curvature="0" />
    </g>
    <g
       id="g98"
       transform="matrix(0.35277777,0,0,-0.35277777,118.81797,207.95445)">
      <path
         d="M 0,0 C -2.178,0 -3.595,-1.555 -4.009,-3.94 H 3.905 C 3.595,-1.59 2.212,0 0,0 M 8.951,-7.223 H -3.94 c 0.518,-2.385 2.177,-3.629 4.528,-3.629 1.762,0 3.041,0.553 4.492,1.901 l 3.007,-2.661 c -1.728,-2.143 -4.216,-3.456 -7.568,-3.456 -5.565,0 -9.678,3.905 -9.678,9.573 v 0.069 c 0,5.288 3.767,9.643 9.159,9.643 6.187,0 9.021,-4.804 9.021,-10.058 V -5.91 c 0,-0.518 -0.036,-0.829 -0.07,-1.313"
         style="fill:#898b8e;fill-opacity:1;fill-rule:nonzero;stroke:none"
         id="path100"
         inkscape:connector-curvature="0" />
    </g>
    <g
       id="g102"
       transform="matrix(0.35277777,0,0,-0.35277777,89.40047,201.48471)">
      <path
         d="m 0,0 c 0,-3.142 -2.546,-5.688 -5.688,-5.688 -3.142,0 -5.688,2.546 -5.688,5.688 0,3.142 2.546,5.688 5.688,5.688 C -2.546,5.688 0,3.142 0,0 Z"
         style="fill:none;stroke:#54545b;stroke-width:3.5;stroke-linecap:butt;stroke-linejoin:miter;stroke-miterlimit:10;stroke-dasharray:none;stroke-opacity:1"
         id="path104"
         inkscape:connector-curvature="0" />
    </g>
    <g
       id="g106"
       transform="matrix(0.35277777,0,0,-0.35277777,103.44699,197.47155)">
      <path
         d="m 0,0 h -54.015 c -2.756,0 -5.115,1.976 -5.599,4.688 l -8.085,49.068 c -0.323,1.808 -1.896,3.125 -3.733,3.125 h -4.409 c -1.048,0 -1.897,-0.849 -1.897,-1.896 v -1.896"
         style="fill:none;stroke:#54565b;stroke-width:3.5;stroke-linecap:butt;stroke-linejoin:miter;stroke-miterlimit:10;stroke-dasharray:none;stroke-opacity:1"
         id="path108"
         inkscape:connector-curvature="0" />
    </g>
    <g
       id="g110"
       transform="matrix(0.35277777,0,0,-0.35277777,102.10925,201.48471)">
      <path
         d="m 0,0 c 0,-3.142 -2.547,-5.688 -5.688,-5.688 -3.142,0 -5.688,2.546 -5.688,5.688 0,3.142 2.546,5.688 5.688,5.688 C -2.547,5.688 0,3.142 0,0 Z"
         style="fill:none;stroke:#54545b;stroke-width:3.5;stroke-linecap:butt;stroke-linejoin:miter;stroke-miterlimit:10;stroke-dasharray:none;stroke-opacity:1"
         id="path112"
         inkscape:connector-curvature="0" />
    </g>
    <g
       id="g114"
       transform="matrix(0.35277777,0,0,-0.35277777,79.905987,180.81345)">
      <path
         d="M 0,0 H 14.127"
         style="fill:none;stroke:#54565b;stroke-width:2;stroke-linecap:butt;stroke-linejoin:miter;stroke-miterlimit:10;stroke-dasharray:none;stroke-opacity:1"
         id="path116"
         inkscape:connector-curvature="0" />
    </g>
    <g
       id="g118"
       transform="matrix(0.35277777,0,0,-0.35277777,84.889642,196.04922)">
      <path
         d="m 0,0 h 50.795 c 0.999,0 1.809,0.955 1.809,2.132 v 37.822 l -13.308,-7.837 0.011,7.837 H 39.296 L 25.989,32.117 26,39.954 h -0.011 l -13.296,-7.83 v 37.314 c 0,1.178 -0.809,2.132 -1.808,2.132 H 2.172 c -0.999,0 -1.808,-0.954 -1.808,-2.131 L 0,0"
         style="fill:#ff8400;fill-opacity:1;fill-rule:nonzero;stroke:none"
         id="path120"
         inkscape:connector-curvature="0" />
    </g>
    <g
       id="g122"
       transform="matrix(0.35277777,0,0,-0.35277777,76.207499,182.49052)">
      <path
         d="m 0,0 h -10.678 c -0.689,0 -1.247,0.417 -1.247,0.931 0,0.515 0.558,0.931 1.247,0.931 H 0 C 0.689,1.862 1.248,1.446 1.248,0.931 1.248,0.417 0.689,0 0,0"
         style="fill:#898b8e;fill-opacity:1;fill-rule:nonzero;stroke:none"
         id="path124"
         inkscape:connector-curvature="0" />
    </g>
    <g
       id="g126"
       transform="matrix(0.35277777,0,0,-0.35277777,78.020283,183.69597)">
      <path
         d="m 0,0 h -21.429 c -0.703,0 -1.273,0.417 -1.273,0.931 0,0.515 0.57,0.931 1.273,0.931 H 0 C 0.703,1.862 1.272,1.446 1.272,0.931 1.272,0.417 0.703,0 0,0"
         style="fill:#898b8e;fill-opacity:1;fill-rule:nonzero;stroke:none"
         id="path128"
         inkscape:connector-curvature="0" />
    </g>
    <g
       id="g130"
       transform="matrix(0.35277777,0,0,-0.35277777,74.841509,184.90141)">
      <path
         d="m 0,0 h -10.209 c -0.689,0 -1.248,0.417 -1.248,0.931 0,0.514 0.559,0.931 1.248,0.931 H 0 C 0.688,1.862 1.247,1.445 1.247,0.931 1.247,0.417 0.688,0 0,0"
         style="fill:#898b8e;fill-opacity:1;fill-rule:nonzero;stroke:none"
         id="path132"
         inkscape:connector-curvature="0" />
    </g>
    <g
       id="g166"
       transform="matrix(0.35277777,0,0,-0.35277777,71.975718,221.47162)">
      <path
         d="m 0,0 c 0,1.062 -0.403,2.447 -2.526,2.447 -0.207,0 -0.42,-0.021 -0.513,-0.044 -0.334,-1.598 -0.648,-3.33 -1.072,-5.525 0.217,-0.075 0.643,-0.14 1.016,-0.14 1.477,0 3.098,0.896 3.095,3.251 z m 0.921,0.022 c 0.004,-2.616 -1.864,-3.892 -4.093,-3.892 -0.615,0 -1.224,0.082 -1.908,0.281 0.356,1.753 0.663,3.343 0.885,4.436 0.14,0.71 0.216,1.113 0.301,1.503 C -4.092,2.32 -4.342,2.273 -4.472,2.249 l -0.05,0.1 0.192,0.438 c 0.455,0.155 1.256,0.263 1.803,0.263 3.29,0 3.448,-2.352 3.448,-3.017 z"
         style="fill:#54565b;fill-opacity:1;fill-rule:nonzero;stroke:none"
         id="path168"
         inkscape:connector-curvature="0" />
    </g>
    <g
       id="g170"
       transform="matrix(0.35277777,0,0,-0.35277777,73.476753,221.08579)">
      <path
         d="m 0,0 c 0.732,0 1.067,-0.499 1.067,-1.029 0.003,-1.41 -1.676,-1.777 -2.164,-1.777 -0.262,0 -0.387,0.302 -0.377,0.54 1.637,0.138 1.756,0.875 1.756,1.208 0,0.268 -0.171,0.476 -0.462,0.476 -0.821,0 -1.733,-1.363 -1.73,-2.649 0,-0.642 0.266,-1.08 0.793,-1.08 0.712,0 1.292,0.51 1.615,0.852 C 0.596,-3.49 0.689,-3.639 0.687,-3.801 0.68,-3.91 0.632,-4.067 0.53,-4.18 0.082,-4.632 -0.53,-4.985 -1.339,-4.985 c -0.958,0 -1.417,0.657 -1.417,1.665 -0.004,1.372 0.839,2.467 1.444,2.886 C -0.869,-0.126 -0.452,0 -0.011,0 Z"
         style="fill:#54565b;fill-opacity:1;fill-rule:nonzero;stroke:none"
         id="path172"
         inkscape:connector-curvature="0" />
    </g>
    <g
       id="g174"
       transform="matrix(0.35277777,0,0,-0.35277777,75.12486,222.63056)">
      <path
         d="M 0,0 C -0.054,-0.249 -0.094,-0.361 -0.191,-0.422 -0.293,-0.487 -0.621,-0.556 -0.929,-0.563 -0.692,0.482 0.045,4.179 0.218,5.13 0.389,6.07 0.482,6.543 0.504,6.757 0.765,6.824 1.067,6.88 1.224,6.88 1.322,6.88 1.331,6.742 1.263,6.406 1.011,5.043 0.253,1.305 0,0"
         style="fill:#54565b;fill-opacity:1;fill-rule:nonzero;stroke:none"
         id="path176"
         inkscape:connector-curvature="0" />
    </g>
    <g
       id="g178"
       transform="matrix(0.35277777,0,0,-0.35277777,76.709609,221.30144)">
      <path
         d="m 0,0 c -0.396,0 -0.891,-0.179 -1.421,-0.845 -0.556,-0.704 -0.853,-1.562 -0.853,-2.216 0,-0.368 0.111,-0.573 0.377,-0.573 0.593,0 1.557,1.065 2.074,2.024 0.123,0.458 0.299,1.265 0.371,1.458 C 0.424,-0.067 0.254,0 0.011,0 Z m 0.092,0.611 c 0.395,0 0.63,-0.112 0.736,-0.17 0.303,0.074 0.338,0.08 0.655,0.127 C 1.334,0.109 0.817,-2.033 0.647,-3.428 0.637,-3.55 0.641,-3.612 0.694,-3.612 c 0.108,0 0.341,0.151 0.557,0.347 C 1.295,-3.31 1.327,-3.429 1.327,-3.527 1.325,-3.667 1.313,-3.81 1.148,-3.954 0.883,-4.212 0.47,-4.374 0.154,-4.374 c -0.216,0 -0.38,0.144 -0.297,0.683 0.051,0.352 0.101,0.634 0.183,0.954 -1.061,-1.496 -1.886,-1.637 -2.339,-1.637 -0.44,0 -0.836,0.357 -0.836,1.186 0,0.725 0.374,2.002 1.348,2.934 0.804,0.772 1.486,0.865 1.868,0.865 z"
         style="fill:#54565b;fill-opacity:1;fill-rule:nonzero;stroke:none"
         id="path180"
         inkscape:connector-curvature="0" />
    </g>
    <g
       id="g182"
       transform="matrix(0.35277777,0,0,-0.35277777,79.340626,220.18384)">
      <path
         d="M 0,0 C 0.354,0 0.64,-0.14 0.721,-0.261 0.708,-0.357 0.661,-0.483 0.61,-0.571 0.529,-0.687 0.431,-0.755 0.358,-0.729 c -0.115,0.053 -0.254,0.093 -0.448,0.093 -0.594,0 -1.087,-0.859 -1.282,-2.163 0.714,0.036 1.166,0.064 1.459,0.125 -0.072,-0.245 -0.183,-0.472 -0.342,-0.556 -0.122,-0.08 -0.374,-0.129 -1.215,-0.162 -0.252,-1.703 -0.388,-2.548 -0.593,-3.569 -0.453,-2.255 -1.329,-2.801 -2.286,-2.801 -0.534,0 -0.861,0.275 -0.856,0.456 0,0.112 0.159,0.339 0.241,0.404 0.199,-0.134 0.428,-0.235 0.673,-0.235 0.884,0 1.244,1.106 1.543,2.666 0.222,1.151 0.354,2.067 0.506,3.05 -0.236,-0.004 -0.557,-0.012 -0.656,0.018 0.049,0.105 0.131,0.223 0.252,0.316 0.155,0.166 0.329,0.226 0.479,0.257 0.385,2.274 1.283,2.83 2.156,2.83 z"
         style="fill:#54565b;fill-opacity:1;fill-rule:nonzero;stroke:none"
         id="path184"
         inkscape:connector-curvature="0" />
    </g>
    <g
       id="g186"
       transform="matrix(0.35277777,0,0,-0.35277777,80.475439,220.20003)">
      <path
         d="m 0,0 c 0.184,0.004 0.403,-0.124 0.52,-0.244 0.063,-0.062 0.046,-0.117 -0.046,-0.213 -0.445,-0.48 -0.875,-1.06 -1.19,-1.469 -0.122,0.032 -0.19,0.103 -0.27,0.173 -0.053,0.043 -0.054,0.117 0.034,0.289 0.212,0.43 0.75,1.46 0.941,1.464 z m -0.673,-3.122 c -0.396,0 -0.89,-0.179 -1.421,-0.845 -0.555,-0.704 -0.853,-1.562 -0.853,-2.216 0,-0.368 0.111,-0.573 0.377,-0.573 0.593,0 1.557,1.065 2.074,2.024 0.123,0.458 0.299,1.265 0.371,1.458 -0.124,0.085 -0.294,0.152 -0.537,0.152 z m 0.092,0.611 c 0.395,0 0.63,-0.112 0.736,-0.17 0.303,0.074 0.338,0.08 0.656,0.127 -0.15,-0.459 -0.666,-2.601 -0.836,-3.996 -0.011,-0.122 -0.007,-0.184 0.046,-0.184 0.108,0 0.341,0.151 0.557,0.347 0.044,-0.045 0.076,-0.164 0.076,-0.262 -0.002,-0.14 -0.013,-0.283 -0.178,-0.427 -0.266,-0.258 -0.679,-0.42 -0.995,-0.42 -0.216,0 -0.379,0.143 -0.296,0.683 0.05,0.352 0.1,0.634 0.182,0.954 -1.06,-1.496 -1.886,-1.637 -2.339,-1.637 -0.44,0 -0.836,0.357 -0.836,1.186 0,0.725 0.374,2.002 1.348,2.934 0.804,0.772 1.486,0.865 1.868,0.865 z"
         style="fill:#54565b;fill-opacity:1;fill-rule:nonzero;stroke:none"
         id="path188"
         inkscape:connector-curvature="0" />
    </g>
    <g
       id="g190"
       transform="matrix(0.35277777,0,0,-0.35277777,81.304326,222.53652)">
      <path
         d="m 0,0 c 0.115,-0.133 0.373,-0.264 0.666,-0.264 1.199,0 2.139,1.543 2.136,2.942 0,0.51 -0.163,0.716 -0.49,0.716 C 1.903,3.394 1.194,2.956 0.326,1.696 0.218,1.234 0.107,0.675 0,0 M 1.17,6.613 C 1.267,6.613 1.285,6.501 1.209,6.165 1.123,5.763 0.812,4.168 0.49,2.683 1.454,3.845 2.175,4.105 2.662,4.105 3.463,4.105 3.668,3.33 3.668,2.767 3.671,1.863 3.268,0.699 2.497,-0.039 1.716,-0.782 0.934,-0.873 0.561,-0.873 c -0.464,0 -1.055,0.159 -1.421,0.577 0.071,0.311 0.808,3.924 1.021,5.169 0.205,1.192 0.25,1.387 0.272,1.596 0.224,0.075 0.6,0.144 0.737,0.144"
         style="fill:#54565b;fill-opacity:1;fill-rule:nonzero;stroke:none"
         id="path192"
         inkscape:connector-curvature="0" />
    </g>
    <g
       id="g194"
       transform="matrix(0.35277777,0,0,-0.35277777,83.876782,221.08579)">
      <path
         d="M 0,0 C 0.279,0 0.441,-0.198 0.441,-0.271 0.437,-0.434 0.285,-0.759 0.125,-0.936 c -0.112,0.062 -0.2,0.091 -0.312,0.091 -0.281,0 -0.597,-0.267 -0.956,-0.84 -0.373,-0.594 -0.583,-1.225 -0.904,-2.671 -0.07,-0.318 -0.121,-0.419 -0.207,-0.463 -0.1,-0.059 -0.52,-0.113 -0.735,-0.123 0.22,0.843 0.619,2.546 0.773,3.676 0.076,0.487 0.047,0.582 -0.048,0.582 -0.105,0 -0.35,-0.131 -0.553,-0.287 -0.043,0.066 -0.076,0.173 -0.076,0.288 0.003,0.11 0.048,0.207 0.205,0.322 C -2.443,-0.184 -2.08,0 -1.8,0 -1.411,0 -1.372,-0.324 -1.653,-1.684 -0.825,-0.089 -0.281,0 -0.011,0 Z"
         style="fill:#54565b;fill-opacity:1;fill-rule:nonzero;stroke:none"
         id="path196"
         inkscape:connector-curvature="0" />
    </g>
    <g
       id="g198"
       transform="matrix(0.35277777,0,0,-0.35277777,84.638499,220.25792)">
      <path
         d="m 0,0 c 0.148,0 0.402,-0.055 0.402,-0.448 0,-0.39 -0.308,-0.563 -0.511,-0.563 -0.209,0 -0.404,0.108 -0.404,0.433 0,0.454 0.341,0.578 0.502,0.578 z m -0.063,-2.347 c 0.091,0 0.125,-0.095 0.047,-0.491 -0.381,-1.971 -0.601,-3.213 -0.755,-3.965 -0.039,-0.209 -0.079,-0.278 -0.164,-0.332 -0.102,-0.056 -0.454,-0.143 -0.737,-0.154 0.137,0.651 0.376,1.795 0.553,2.781 0.216,1.159 0.309,1.797 0.33,1.987 0.137,0.065 0.611,0.174 0.726,0.174"
         style="fill:#54565b;fill-opacity:1;fill-rule:nonzero;stroke:none"
         id="path200"
         inkscape:connector-curvature="0" />
    </g>
    <g
       id="g202"
       transform="matrix(0.35277777,0,0,-0.35277777,85.881477,221.08579)">
      <path
         d="M 0,0 C 0.404,0 0.698,-0.145 0.771,-0.278 0.746,-0.513 0.5,-0.77 0.394,-0.749 c -0.111,0.04 -0.294,0.107 -0.512,0.107 -1.053,0 -1.905,-1.286 -1.903,-2.673 0,-0.623 0.271,-0.989 0.747,-0.989 0.693,0 1.226,0.516 1.501,0.797 0.059,-0.031 0.161,-0.154 0.161,-0.35 0,-0.112 -0.033,-0.233 -0.179,-0.385 -0.599,-0.614 -1.32,-0.743 -1.759,-0.743 -0.523,0 -1.327,0.26 -1.327,1.555 -0.004,1.578 0.947,2.617 1.548,3.018 C -0.891,-0.123 -0.435,0 -0.011,0 Z"
         style="fill:#54565b;fill-opacity:1;fill-rule:nonzero;stroke:none"
         id="path204"
         inkscape:connector-curvature="0" />
    </g>
    <g
       id="g206"
       transform="matrix(0.35277777,0,0,-0.35277777,87.382863,221.30144)">
      <path
         d="m 0,0 c -0.396,0 -0.891,-0.179 -1.421,-0.845 -0.556,-0.704 -0.853,-1.562 -0.853,-2.216 0,-0.368 0.111,-0.573 0.377,-0.573 0.593,0 1.557,1.065 2.074,2.024 0.123,0.458 0.299,1.265 0.371,1.458 C 0.424,-0.067 0.254,0 0.011,0 Z m 0.092,0.611 c 0.395,0 0.63,-0.112 0.736,-0.17 0.303,0.074 0.338,0.08 0.654,0.127 C 1.334,0.109 0.818,-2.033 0.647,-3.428 0.637,-3.55 0.641,-3.612 0.694,-3.612 c 0.108,0 0.341,0.151 0.558,0.347 C 1.295,-3.31 1.327,-3.429 1.327,-3.527 1.325,-3.667 1.313,-3.81 1.148,-3.954 0.883,-4.212 0.47,-4.374 0.154,-4.374 c -0.216,0 -0.38,0.144 -0.297,0.683 0.051,0.352 0.101,0.634 0.183,0.954 -1.061,-1.496 -1.886,-1.637 -2.339,-1.637 -0.44,0 -0.836,0.357 -0.836,1.186 0,0.725 0.374,2.002 1.348,2.934 0.804,0.772 1.486,0.865 1.868,0.865 z"
         style="fill:#54565b;fill-opacity:1;fill-rule:nonzero;stroke:none"
         id="path208"
         inkscape:connector-curvature="0" />
    </g>
    <g
       id="g210"
       transform="matrix(0.35277777,0,0,-0.35277777,90.005942,221.30144)">
      <path
         d="m 0,0 c -0.396,0 -0.891,-0.179 -1.421,-0.845 -0.556,-0.704 -0.853,-1.562 -0.853,-2.216 0,-0.368 0.111,-0.573 0.377,-0.573 0.593,0 1.557,1.065 2.074,2.024 0.123,0.458 0.299,1.265 0.371,1.458 C 0.424,-0.067 0.254,0 0.011,0 Z m 0.092,0.611 c 0.395,0 0.63,-0.112 0.736,-0.17 0.303,0.074 0.338,0.08 0.654,0.127 C 1.334,0.109 0.818,-2.033 0.647,-3.428 0.637,-3.55 0.641,-3.612 0.694,-3.612 c 0.108,0 0.341,0.151 0.558,0.347 C 1.295,-3.31 1.327,-3.429 1.327,-3.527 1.325,-3.667 1.313,-3.81 1.148,-3.954 0.883,-4.212 0.47,-4.374 0.154,-4.374 c -0.216,0 -0.38,0.144 -0.297,0.683 0.051,0.352 0.101,0.634 0.183,0.954 -1.061,-1.496 -1.886,-1.637 -2.339,-1.637 -0.44,0 -0.836,0.357 -0.836,1.186 0,0.725 0.374,2.002 1.348,2.934 0.804,0.772 1.486,0.865 1.868,0.865 z"
         style="fill:#54565b;fill-opacity:1;fill-rule:nonzero;stroke:none"
         id="path212"
         inkscape:connector-curvature="0" />
    </g>
    <g
       id="g214"
       transform="matrix(0.35277777,0,0,-0.35277777,92.436124,222.36976)">
      <path
         d="m 0,0 c -0.047,-0.47 -0.152,-0.621 -0.347,-0.806 -0.412,-0.356 -0.871,-0.54 -1.257,-0.54 -0.374,0 -0.783,0.271 -0.569,1.464 0.12,0.73 0.256,1.414 0.564,2.69 -0.232,-0.013 -0.564,-0.003 -0.628,0.041 0.025,0.108 0.1,0.202 0.205,0.285 0.188,0.188 0.402,0.242 0.562,0.269 0.234,0.748 0.391,1.019 0.51,1.109 0.153,0.125 0.419,0.22 0.643,0.244 C -0.483,4.284 -0.565,3.978 -0.701,3.411 -0.051,3.447 0.377,3.462 0.729,3.523 0.663,3.277 0.538,3.08 0.383,2.982 0.25,2.902 -0.016,2.85 -0.844,2.82 -1.123,1.733 -1.342,0.447 -1.388,0.112 c -0.08,-0.506 -0.026,-0.746 0.158,-0.746 0.288,0 0.768,0.35 1.139,0.707 z"
         style="fill:#54565b;fill-opacity:1;fill-rule:nonzero;stroke:none"
         id="path216"
         inkscape:connector-curvature="0" />
    </g>
    <g
       id="g218"
       transform="matrix(0.35277777,0,0,-0.35277777,94.269967,222.53994)">
      <path
         d="m 0,0 c 0,-0.163 -0.032,-0.3 -0.208,-0.458 -0.276,-0.235 -0.718,-0.405 -0.983,-0.405 -0.249,0 -0.413,0.093 -0.294,0.728 0.073,0.433 0.155,0.77 0.213,1.057 l -0.03,0.011 c -0.954,-1.49 -1.769,-1.796 -2.334,-1.796 -0.423,0 -0.692,0.299 -0.685,0.88 0.004,0.235 0.089,0.725 0.23,1.336 0.356,1.466 0.484,2.22 0.539,2.588 0.118,0.065 0.612,0.181 0.751,0.181 0.089,0 0.104,-0.127 0.055,-0.363 -0.157,-0.727 -0.53,-2.166 -0.704,-3.172 -0.094,-0.555 -0.007,-0.713 0.177,-0.713 0.782,0 1.978,1.785 2.243,2.558 0.085,0.321 0.125,0.474 0.234,1.019 0.073,0.36 0.106,0.473 0.208,0.53 0.159,0.095 0.578,0.149 0.744,0.141 -0.267,-0.841 -0.708,-3.041 -0.849,-4.032 -0.023,-0.136 0.006,-0.199 0.06,-0.199 0.087,0 0.338,0.16 0.558,0.357 C -0.032,0.202 0,0.105 0,0"
         style="fill:#54565b;fill-opacity:1;fill-rule:nonzero;stroke:none"
         id="path220"
         inkscape:connector-curvature="0" />
    </g>
    <g
       id="g222"
       transform="matrix(0.35277777,0,0,-0.35277777,96.355625,221.08579)">
      <path
         d="M 0,0 C 0.404,0 0.698,-0.145 0.771,-0.278 0.746,-0.513 0.5,-0.77 0.394,-0.749 c -0.111,0.04 -0.294,0.107 -0.512,0.107 -1.053,0 -1.905,-1.286 -1.903,-2.673 0,-0.623 0.271,-0.989 0.747,-0.989 0.693,0 1.226,0.516 1.501,0.797 0.059,-0.031 0.161,-0.154 0.161,-0.35 0,-0.112 -0.033,-0.233 -0.179,-0.385 -0.599,-0.614 -1.32,-0.743 -1.759,-0.743 -0.523,0 -1.327,0.26 -1.327,1.555 -0.004,1.578 0.947,2.617 1.548,3.018 C -0.891,-0.123 -0.435,0 -0.011,0 Z"
         style="fill:#54565b;fill-opacity:1;fill-rule:nonzero;stroke:none"
         id="path224"
         inkscape:connector-curvature="0" />
    </g>
    <g
       id="g226"
       transform="matrix(0.35277777,0,0,-0.35277777,97.856976,221.30144)">
      <path
         d="m 0,0 c -0.396,0 -0.891,-0.179 -1.421,-0.845 -0.556,-0.704 -0.853,-1.562 -0.853,-2.216 0,-0.368 0.111,-0.573 0.377,-0.573 0.593,0 1.557,1.065 2.074,2.024 0.123,0.458 0.299,1.265 0.371,1.458 C 0.424,-0.067 0.254,0 0.011,0 Z m 0.092,0.611 c 0.395,0 0.63,-0.112 0.736,-0.17 0.303,0.074 0.338,0.08 0.655,0.127 C 1.334,0.109 0.817,-2.033 0.647,-3.428 0.637,-3.55 0.641,-3.612 0.694,-3.612 c 0.108,0 0.341,0.151 0.557,0.347 C 1.295,-3.31 1.327,-3.429 1.327,-3.527 1.325,-3.667 1.313,-3.81 1.148,-3.954 0.883,-4.212 0.47,-4.374 0.154,-4.374 c -0.216,0 -0.38,0.144 -0.297,0.683 0.051,0.352 0.101,0.634 0.183,0.954 -1.061,-1.496 -1.886,-1.637 -2.339,-1.637 -0.44,0 -0.836,0.357 -0.836,1.186 0,0.725 0.374,2.002 1.348,2.934 0.804,0.772 1.486,0.865 1.868,0.865 z"
         style="fill:#54565b;fill-opacity:1;fill-rule:nonzero;stroke:none"
         id="path228"
         inkscape:connector-curvature="0" />
    </g>
    <g
       id="g230"
       transform="matrix(0.35277777,0,0,-0.35277777,99.361116,221.08579)">
      <path
         d="M 0,0 C 0.479,0 0.812,-0.217 0.927,-0.387 0.891,-0.549 0.83,-0.657 0.752,-0.76 0.677,-0.861 0.587,-0.853 0.454,-0.778 c -0.174,0.105 -0.352,0.157 -0.555,0.157 -0.406,0 -0.722,-0.336 -0.722,-0.69 0,-0.266 0.17,-0.48 0.767,-0.974 0.603,-0.499 0.756,-0.771 0.756,-1.209 0,-0.834 -0.687,-1.491 -1.726,-1.491 -0.754,0 -1.211,0.395 -1.337,0.578 0.016,0.126 0.094,0.273 0.186,0.367 0.075,0.088 0.199,0.083 0.348,-0.019 0.28,-0.208 0.606,-0.298 0.872,-0.298 0.558,0 0.86,0.357 0.86,0.71 0,0.295 -0.16,0.496 -0.828,1.048 -0.555,0.467 -0.667,0.806 -0.667,1.122 0,0.83 0.691,1.477 1.581,1.477 z"
         style="fill:#54565b;fill-opacity:1;fill-rule:nonzero;stroke:none"
         id="path232"
         inkscape:connector-curvature="0" />
    </g>
    <g
       id="g234"
       transform="matrix(0.35277777,0,0,-0.35277777,100.98961,221.30144)">
      <path
         d="m 0,0 c -0.396,0 -0.891,-0.179 -1.421,-0.845 -0.556,-0.704 -0.853,-1.562 -0.853,-2.216 0,-0.368 0.111,-0.573 0.377,-0.573 0.593,0 1.557,1.065 2.074,2.024 0.123,0.458 0.299,1.265 0.371,1.458 C 0.424,-0.067 0.254,0 0.011,0 Z m 0.092,0.611 c 0.395,0 0.63,-0.112 0.736,-0.17 0.303,0.074 0.338,0.08 0.654,0.127 C 1.334,0.109 0.818,-2.033 0.647,-3.428 0.637,-3.55 0.641,-3.612 0.694,-3.612 c 0.108,0 0.341,0.151 0.558,0.347 C 1.295,-3.31 1.327,-3.429 1.327,-3.527 1.325,-3.667 1.313,-3.81 1.148,-3.954 0.883,-4.212 0.47,-4.374 0.154,-4.374 c -0.216,0 -0.38,0.144 -0.297,0.683 0.051,0.352 0.101,0.634 0.183,0.954 -1.061,-1.496 -1.886,-1.637 -2.339,-1.637 -0.44,0 -0.836,0.357 -0.836,1.186 0,0.725 0.374,2.002 1.348,2.934 0.804,0.772 1.486,0.865 1.868,0.865 z"
         style="fill:#54565b;fill-opacity:1;fill-rule:nonzero;stroke:none"
         id="path236"
         inkscape:connector-curvature="0" />
    </g>
    <g
       id="g238"
       transform="matrix(0.35277777,0,0,-0.35277777,102.05761,222.31328)">
      <path
         d="m 0,0 c 0.169,0 0.258,-0.269 0.229,-0.649 -0.048,-0.577 -0.56,-1.367 -1.025,-1.671 -0.19,-0.144 -0.546,-0.18 -0.78,-0.169 0.54,0.553 1.003,1.466 0.91,2.252 C -0.485,-0.113 -0.226,0 -0.011,0 Z"
         style="fill:#54565b;fill-opacity:1;fill-rule:nonzero;stroke:none"
         id="path240"
         inkscape:connector-curvature="0" />
    </g>
    <g
       id="g242"
       transform="matrix(0.35277777,0,0,-0.35277777,103.63819,222.53652)">
      <path
         d="m 0,0 c 0.115,-0.133 0.373,-0.264 0.666,-0.264 1.199,0 2.139,1.543 2.136,2.942 0,0.51 -0.163,0.716 -0.49,0.716 C 1.903,3.394 1.194,2.956 0.326,1.696 0.218,1.234 0.107,0.675 0,0 M 1.17,6.613 C 1.267,6.613 1.285,6.501 1.209,6.165 1.123,5.763 0.812,4.168 0.49,2.683 1.454,3.845 2.175,4.105 2.662,4.105 3.463,4.105 3.668,3.33 3.668,2.767 3.671,1.863 3.268,0.699 2.497,-0.039 1.716,-0.782 0.934,-0.873 0.561,-0.873 c -0.464,0 -1.055,0.159 -1.421,0.577 0.071,0.311 0.808,3.924 1.021,5.169 0.205,1.192 0.25,1.387 0.272,1.596 0.224,0.075 0.6,0.144 0.737,0.144"
         style="fill:#54565b;fill-opacity:1;fill-rule:nonzero;stroke:none"
         id="path244"
         inkscape:connector-curvature="0" />
    </g>
    <g
       id="g246"
       transform="matrix(0.35277777,0,0,-0.35277777,106.70916,222.53994)">
      <path
         d="m 0,0 c 0,-0.163 -0.032,-0.3 -0.208,-0.458 -0.276,-0.235 -0.718,-0.405 -0.983,-0.405 -0.249,0 -0.413,0.093 -0.294,0.728 0.073,0.433 0.155,0.77 0.213,1.057 l -0.03,0.011 c -0.954,-1.49 -1.769,-1.796 -2.334,-1.796 -0.423,0 -0.692,0.299 -0.685,0.88 0.004,0.235 0.089,0.725 0.23,1.336 0.356,1.466 0.484,2.22 0.539,2.588 0.118,0.065 0.612,0.181 0.751,0.181 0.089,0 0.104,-0.127 0.055,-0.363 -0.157,-0.727 -0.53,-2.166 -0.704,-3.172 -0.094,-0.555 -0.007,-0.713 0.177,-0.713 0.782,0 1.978,1.785 2.243,2.558 0.085,0.321 0.125,0.474 0.234,1.019 0.073,0.36 0.106,0.473 0.208,0.53 0.159,0.095 0.578,0.149 0.744,0.141 -0.267,-0.841 -0.708,-3.041 -0.849,-4.032 -0.023,-0.136 0.006,-0.199 0.06,-0.199 0.087,0 0.338,0.16 0.558,0.357 C -0.032,0.202 0,0.105 0,0"
         style="fill:#54565b;fill-opacity:1;fill-rule:nonzero;stroke:none"
         id="path248"
         inkscape:connector-curvature="0" />
    </g>
    <g
       id="g250"
       transform="matrix(0.35277777,0,0,-0.35277777,107.98004,221.08579)">
      <path
         d="m 0,0 c 0.732,0 1.067,-0.499 1.067,-1.029 0.003,-1.41 -1.676,-1.777 -2.164,-1.777 -0.262,0 -0.387,0.302 -0.377,0.54 1.637,0.138 1.756,0.875 1.756,1.208 0,0.268 -0.171,0.476 -0.462,0.476 -0.821,0 -1.733,-1.363 -1.73,-2.649 0,-0.642 0.266,-1.08 0.793,-1.08 0.712,0 1.292,0.51 1.615,0.852 C 0.596,-3.49 0.689,-3.639 0.687,-3.801 0.68,-3.91 0.632,-4.067 0.53,-4.18 0.082,-4.632 -0.53,-4.985 -1.339,-4.985 c -0.958,0 -1.417,0.657 -1.417,1.665 -0.004,1.372 0.839,2.467 1.444,2.886 C -0.869,-0.126 -0.452,0 -0.011,0 Z"
         style="fill:#54565b;fill-opacity:1;fill-rule:nonzero;stroke:none"
         id="path252"
         inkscape:connector-curvature="0" />
    </g>
    <g
       id="g254"
       transform="matrix(0.35277777,0,0,-0.35277777,109.92138,221.08579)">
      <path
         d="m 0,0 c 0.354,0 0.523,-0.185 0.527,-0.584 0.002,-0.538 -0.419,-1.995 -0.746,-3.55 -0.008,-0.036 0.003,-0.09 0.058,-0.09 0.086,0 0.337,0.137 0.562,0.346 0.043,-0.05 0.073,-0.132 0.073,-0.244 0,-0.143 -0.021,-0.265 -0.165,-0.401 -0.33,-0.307 -0.794,-0.462 -1.068,-0.462 -0.344,0 -0.43,0.206 -0.3,0.685 0.127,0.545 0.567,2.222 0.713,3.126 0.049,0.306 0.009,0.427 -0.156,0.427 -0.695,0 -2.111,-1.897 -2.344,-2.514 -0.152,-0.648 -0.199,-0.834 -0.265,-1.126 -0.05,-0.259 -0.097,-0.352 -0.2,-0.418 -0.097,-0.065 -0.378,-0.127 -0.73,-0.137 0.153,0.653 0.411,1.798 0.598,2.789 0.228,1.175 0.298,1.813 0.301,1.979 0.117,0.065 0.618,0.174 0.719,0.174 0.136,0 0.109,-0.29 -0.255,-2.012 h 0.033 C -1.378,-0.217 -0.493,0 -0.011,0 Z"
         style="fill:#54565b;fill-opacity:1;fill-rule:nonzero;stroke:none"
         id="path256"
         inkscape:connector-curvature="0" />
    </g>
    <g
       id="g258"
       transform="matrix(0.35277777,0,0,-0.35277777,111.47681,221.30144)">
      <path
         d="m 0,0 c -0.396,0 -0.891,-0.179 -1.421,-0.845 -0.556,-0.704 -0.853,-1.562 -0.853,-2.216 0,-0.368 0.111,-0.573 0.377,-0.573 0.593,0 1.557,1.065 2.074,2.024 0.123,0.458 0.299,1.265 0.371,1.458 C 0.424,-0.067 0.254,0 0.011,0 Z m 0.092,0.611 c 0.395,0 0.63,-0.112 0.736,-0.17 0.303,0.074 0.338,0.08 0.655,0.127 C 1.334,0.109 0.817,-2.033 0.647,-3.428 0.637,-3.55 0.641,-3.612 0.694,-3.612 c 0.108,0 0.341,0.151 0.557,0.347 C 1.295,-3.31 1.327,-3.429 1.327,-3.527 1.325,-3.667 1.313,-3.81 1.148,-3.954 0.883,-4.212 0.47,-4.374 0.154,-4.374 c -0.216,0 -0.38,0.144 -0.297,0.683 0.051,0.352 0.101,0.634 0.183,0.954 -1.061,-1.496 -1.886,-1.637 -2.339,-1.637 -0.44,0 -0.836,0.357 -0.836,1.186 0,0.725 0.374,2.002 1.348,2.934 0.804,0.772 1.486,0.865 1.868,0.865 z"
         style="fill:#54565b;fill-opacity:1;fill-rule:nonzero;stroke:none"
         id="path260"
         inkscape:connector-curvature="0" />
    </g>
    <g
       id="g262"
       transform="matrix(0.35277777,0,0,-0.35277777,113.61175,220.25792)">
      <path
         d="m 0,0 c 0.148,0 0.402,-0.055 0.402,-0.448 0,-0.39 -0.308,-0.563 -0.511,-0.563 -0.209,0 -0.404,0.108 -0.404,0.433 0,0.454 0.341,0.578 0.502,0.578 z m -0.063,-2.347 c 0.091,0 0.125,-0.095 0.047,-0.491 -0.381,-1.971 -0.601,-3.213 -0.755,-3.965 -0.039,-0.209 -0.079,-0.278 -0.164,-0.332 -0.102,-0.056 -0.454,-0.143 -0.737,-0.154 0.137,0.651 0.376,1.795 0.553,2.781 0.216,1.159 0.309,1.797 0.33,1.987 0.137,0.065 0.611,0.174 0.726,0.174"
         style="fill:#54565b;fill-opacity:1;fill-rule:nonzero;stroke:none"
         id="path264"
         inkscape:connector-curvature="0" />
    </g>
    <g
       id="g266"
       transform="matrix(0.35277777,0,0,-0.35277777,114.86506,221.29833)">
      <path
         d="m 0,0 c -0.842,0 -2.065,-1.287 -2.062,-2.953 0,-0.429 0.119,-0.707 0.416,-0.707 0.724,0 1.813,1.481 2.052,1.968 0.118,0.419 0.171,0.607 0.321,1.36 C 0.535,-0.112 0.312,0 0,0 M 0.133,0.603 C 0.437,0.603 0.721,0.492 0.861,0.347 0.995,0.929 1.28,2.491 1.346,2.966 1.505,3.021 1.92,3.104 2.082,3.104 2.173,3.104 2.203,3.007 2.122,2.62 1.845,1.188 1.072,-2.37 0.914,-3.47 0.896,-3.563 0.91,-3.618 0.964,-3.618 c 0.089,0 0.345,0.153 0.564,0.347 0.043,-0.042 0.077,-0.14 0.077,-0.245 0,-0.157 -0.041,-0.289 -0.181,-0.42 -0.357,-0.317 -0.779,-0.447 -1.036,-0.447 -0.24,0 -0.391,0.141 -0.308,0.643 0.072,0.396 0.138,0.695 0.21,0.991 -0.954,-1.399 -1.781,-1.634 -2.287,-1.634 -0.53,0 -0.942,0.474 -0.942,1.296 0,1.901 1.543,3.69 3.054,3.69 z"
         style="fill:#54565b;fill-opacity:1;fill-rule:nonzero;stroke:none"
         id="path268"
         inkscape:connector-curvature="0" />
    </g>
    <g
       id="g270"
       transform="matrix(0.35277777,0,0,-0.35277777,116.69958,221.08579)">
      <path
         d="m 0,0 c 0.732,0 1.067,-0.499 1.067,-1.029 0.003,-1.41 -1.676,-1.777 -2.164,-1.777 -0.262,0 -0.387,0.302 -0.377,0.54 1.637,0.138 1.756,0.875 1.756,1.208 0,0.268 -0.171,0.476 -0.462,0.476 -0.821,0 -1.733,-1.363 -1.73,-2.649 0,-0.642 0.266,-1.08 0.793,-1.08 0.712,0 1.292,0.51 1.615,0.852 C 0.596,-3.49 0.689,-3.639 0.687,-3.801 0.68,-3.91 0.632,-4.067 0.53,-4.18 0.082,-4.632 -0.53,-4.985 -1.339,-4.985 c -0.958,0 -1.417,0.657 -1.417,1.665 -0.004,1.372 0.839,2.467 1.444,2.886 C -0.869,-0.126 -0.452,0 -0.011,0 Z"
         style="fill:#54565b;fill-opacity:1;fill-rule:nonzero;stroke:none"
         id="path272"
         inkscape:connector-curvature="0" />
    </g>
    <g
       id="g274"
       transform="matrix(0.35277777,0,0,-0.35277777,118.3057,221.30144)">
      <path
         d="m 0,0 c -0.396,0 -0.891,-0.179 -1.421,-0.845 -0.556,-0.704 -0.853,-1.562 -0.853,-2.216 0,-0.368 0.111,-0.573 0.377,-0.573 0.593,0 1.557,1.065 2.074,2.024 0.123,0.458 0.299,1.265 0.371,1.458 C 0.424,-0.067 0.254,0 0.011,0 Z m 0.092,0.611 c 0.395,0 0.63,-0.112 0.736,-0.17 0.303,0.074 0.338,0.08 0.655,0.127 C 1.334,0.109 0.817,-2.033 0.647,-3.428 0.637,-3.55 0.641,-3.612 0.694,-3.612 c 0.108,0 0.341,0.151 0.557,0.347 C 1.295,-3.31 1.327,-3.429 1.327,-3.527 1.325,-3.667 1.313,-3.81 1.148,-3.954 0.883,-4.212 0.47,-4.374 0.154,-4.374 c -0.216,0 -0.38,0.144 -0.297,0.683 0.051,0.352 0.101,0.634 0.183,0.954 -1.061,-1.496 -1.886,-1.637 -2.339,-1.637 -0.44,0 -0.836,0.357 -0.836,1.186 0,0.725 0.374,2.002 1.348,2.934 0.804,0.772 1.486,0.865 1.868,0.865 z"
         style="fill:#54565b;fill-opacity:1;fill-rule:nonzero;stroke:none"
         id="path276"
         inkscape:connector-curvature="0" />
    </g>
    <g
       id="g278"
       transform="matrix(0.35277777,0,0,-0.35277777,120.18086,220.57486)">
      <path
         d="m 0,0 c 0.065,0.145 0.574,0.263 0.772,0.263 0.131,0 0.181,-0.062 0.137,-0.285 C 0.82,-0.521 0.15,-3.486 0.056,-3.817 0.016,-4.013 -0.064,-4.056 -0.143,-4.1 -0.324,-4.164 -0.529,-4.218 -0.573,-4.218 -0.522,-3.785 -0.119,-0.746 0,0 m -0.485,-5.262 c 0.303,0 0.448,-0.226 0.448,-0.514 0,-0.37 -0.256,-0.647 -0.605,-0.647 -0.295,0 -0.48,0.145 -0.491,0.462 0,0.389 0.254,0.699 0.637,0.699 z"
         style="fill:#54565b;fill-opacity:1;fill-rule:nonzero;stroke:none"
         id="path280"
         inkscape:connector-curvature="0" />
    </g>
    <g
       id="g282"
       transform="matrix(0.35277777,0,0,-0.35277777,120.83992,220.57486)">
      <path
         d="m 0,0 c 0.065,0.145 0.574,0.263 0.772,0.263 0.131,0 0.181,-0.062 0.137,-0.285 C 0.82,-0.521 0.15,-3.486 0.056,-3.817 0.016,-4.013 -0.064,-4.056 -0.143,-4.1 -0.324,-4.164 -0.529,-4.218 -0.573,-4.218 -0.522,-3.785 -0.119,-0.746 0,0 m -0.485,-5.262 c 0.303,0 0.448,-0.226 0.448,-0.514 0,-0.37 -0.256,-0.647 -0.605,-0.647 -0.295,0 -0.48,0.145 -0.491,0.462 0,0.389 0.254,0.699 0.637,0.699 z"
         style="fill:#54565b;fill-opacity:1;fill-rule:nonzero;stroke:none"
         id="path284"
         inkscape:connector-curvature="0" />
    </g>
    <g
       id="g286"
       transform="matrix(0.35277777,0,0,-0.35277777,121.49894,220.57486)">
      <path
         d="m 0,0 c 0.065,0.145 0.574,0.263 0.772,0.263 0.131,0 0.181,-0.062 0.137,-0.285 C 0.82,-0.521 0.15,-3.486 0.056,-3.817 0.016,-4.013 -0.064,-4.056 -0.143,-4.1 -0.324,-4.164 -0.529,-4.218 -0.573,-4.218 -0.522,-3.785 -0.119,-0.746 0,0 m -0.485,-5.262 c 0.303,0 0.448,-0.226 0.448,-0.514 0,-0.37 -0.256,-0.647 -0.605,-0.647 -0.295,0 -0.48,0.145 -0.491,0.462 0,0.389 0.254,0.699 0.637,0.699 z"
         style="fill:#54565b;fill-opacity:1;fill-rule:nonzero;stroke:none"
         id="path288"
         inkscape:connector-curvature="0" />
    </g>
  </g>
</svg>
